<mxfile host="app.diagrams.net" modified="2023-11-22T10:22:48.122Z" agent="Mozilla/5.0 (Windows NT 10.0; Win64; x64) AppleWebKit/537.36 (KHTML, like Gecko) Chrome/119.0.0.0 Safari/537.36" etag="hbyN5mWxcyuuKEt9Ib3_" version="22.1.3" type="github">
  <diagram id="C5RBs43oDa-KdzZeNtuy" name="Page-1">
    <mxGraphModel dx="794" dy="502" grid="1" gridSize="10" guides="1" tooltips="1" connect="1" arrows="1" fold="1" page="1" pageScale="1" pageWidth="827" pageHeight="1169" math="0" shadow="0">
      <root>
        <mxCell id="WIyWlLk6GJQsqaUBKTNV-0" />
        <mxCell id="WIyWlLk6GJQsqaUBKTNV-1" parent="WIyWlLk6GJQsqaUBKTNV-0" />
        <mxCell id="tSty_umQpJgE1_JMAKVe-2" value="&lt;font style=&quot;font-size: 18px;&quot;&gt;Student&lt;/font&gt;" style="swimlane;whiteSpace=wrap;html=1;startSize=20;" vertex="1" parent="WIyWlLk6GJQsqaUBKTNV-1">
          <mxGeometry x="360" y="20" width="170" height="230" as="geometry" />
        </mxCell>
        <mxCell id="tSty_umQpJgE1_JMAKVe-3" value="Name" style="rounded=0;whiteSpace=wrap;html=1;" vertex="1" parent="tSty_umQpJgE1_JMAKVe-2">
          <mxGeometry y="20" width="170" height="30" as="geometry" />
        </mxCell>
        <mxCell id="tSty_umQpJgE1_JMAKVe-5" value="Address" style="rounded=0;whiteSpace=wrap;html=1;" vertex="1" parent="tSty_umQpJgE1_JMAKVe-2">
          <mxGeometry y="80" width="170" height="30" as="geometry" />
        </mxCell>
        <mxCell id="tSty_umQpJgE1_JMAKVe-6" value="Gender" style="rounded=0;whiteSpace=wrap;html=1;" vertex="1" parent="tSty_umQpJgE1_JMAKVe-2">
          <mxGeometry y="110" width="170" height="30" as="geometry" />
        </mxCell>
        <mxCell id="tSty_umQpJgE1_JMAKVe-4" value="Student_ID" style="rounded=0;whiteSpace=wrap;html=1;" vertex="1" parent="tSty_umQpJgE1_JMAKVe-2">
          <mxGeometry y="50" width="170" height="30" as="geometry" />
        </mxCell>
        <mxCell id="tSty_umQpJgE1_JMAKVe-7" value="Age" style="rounded=0;whiteSpace=wrap;html=1;" vertex="1" parent="tSty_umQpJgE1_JMAKVe-2">
          <mxGeometry y="140" width="170" height="30" as="geometry" />
        </mxCell>
        <mxCell id="tSty_umQpJgE1_JMAKVe-9" value="Class_ID" style="rounded=0;whiteSpace=wrap;html=1;" vertex="1" parent="tSty_umQpJgE1_JMAKVe-2">
          <mxGeometry y="200" width="170" height="30" as="geometry" />
        </mxCell>
        <mxCell id="tSty_umQpJgE1_JMAKVe-8" value="Course_tittle" style="rounded=0;whiteSpace=wrap;html=1;" vertex="1" parent="tSty_umQpJgE1_JMAKVe-2">
          <mxGeometry y="170" width="170" height="30" as="geometry" />
        </mxCell>
        <mxCell id="tSty_umQpJgE1_JMAKVe-11" value="&lt;font style=&quot;font-size: 18px;&quot;&gt;Course&lt;/font&gt;" style="swimlane;whiteSpace=wrap;html=1;startSize=23;" vertex="1" parent="WIyWlLk6GJQsqaUBKTNV-1">
          <mxGeometry x="560" y="310" width="200" height="140" as="geometry" />
        </mxCell>
        <mxCell id="tSty_umQpJgE1_JMAKVe-12" value="Course_ID" style="rounded=0;whiteSpace=wrap;html=1;" vertex="1" parent="tSty_umQpJgE1_JMAKVe-11">
          <mxGeometry y="20" width="200" height="30" as="geometry" />
        </mxCell>
        <mxCell id="tSty_umQpJgE1_JMAKVe-13" value="Course_Title" style="rounded=0;whiteSpace=wrap;html=1;" vertex="1" parent="tSty_umQpJgE1_JMAKVe-11">
          <mxGeometry y="50" width="200" height="30" as="geometry" />
        </mxCell>
        <mxCell id="tSty_umQpJgE1_JMAKVe-15" value="Credit" style="rounded=0;whiteSpace=wrap;html=1;" vertex="1" parent="tSty_umQpJgE1_JMAKVe-11">
          <mxGeometry y="80" width="200" height="30" as="geometry" />
        </mxCell>
        <mxCell id="tSty_umQpJgE1_JMAKVe-16" value="Price" style="rounded=0;whiteSpace=wrap;html=1;" vertex="1" parent="tSty_umQpJgE1_JMAKVe-11">
          <mxGeometry y="110" width="200" height="30" as="geometry" />
        </mxCell>
        <mxCell id="tSty_umQpJgE1_JMAKVe-17" value="&lt;font style=&quot;font-size: 18px;&quot;&gt;Class&lt;/font&gt;" style="swimlane;whiteSpace=wrap;html=1;" vertex="1" parent="WIyWlLk6GJQsqaUBKTNV-1">
          <mxGeometry x="140" y="290" width="160" height="160" as="geometry" />
        </mxCell>
        <mxCell id="tSty_umQpJgE1_JMAKVe-18" value="Class_ID" style="rounded=0;whiteSpace=wrap;html=1;" vertex="1" parent="tSty_umQpJgE1_JMAKVe-17">
          <mxGeometry y="20" width="160" height="40" as="geometry" />
        </mxCell>
        <mxCell id="tSty_umQpJgE1_JMAKVe-20" value="Schedule" style="rounded=0;whiteSpace=wrap;html=1;" vertex="1" parent="tSty_umQpJgE1_JMAKVe-17">
          <mxGeometry y="60" width="160" height="30" as="geometry" />
        </mxCell>
        <mxCell id="tSty_umQpJgE1_JMAKVe-19" value="Room" style="rounded=0;whiteSpace=wrap;html=1;" vertex="1" parent="tSty_umQpJgE1_JMAKVe-17">
          <mxGeometry y="90" width="160" height="40" as="geometry" />
        </mxCell>
        <mxCell id="tSty_umQpJgE1_JMAKVe-14" value="Location" style="rounded=0;whiteSpace=wrap;html=1;" vertex="1" parent="tSty_umQpJgE1_JMAKVe-17">
          <mxGeometry y="130" width="160" height="30" as="geometry" />
        </mxCell>
      </root>
    </mxGraphModel>
  </diagram>
</mxfile>
